<?xml version="1.0" standalone="no"?>
<!DOCTYPE svg PUBLIC "-//W3C//DTD SVG 20010904//EN"
 "http://www.w3.org/TR/2001/REC-SVG-20010904/DTD/svg10.dtd">
<svg version="1.0" xmlns="http://www.w3.org/2000/svg"
 width="160.000000pt" height="160.000000pt" viewBox="0 0 160.000000 160.000000"
 preserveAspectRatio="xMidYMid meet">
<metadata>
Created by potrace 1.11, written by Peter Selinger 2001-2013
</metadata>
<g transform="translate(0.000000,160.000000) scale(0.100000,-0.100000)"
fill="#000000" stroke="none">
<path d="M399 1433 c-7 -21 -9 -63 -6 -100 4 -60 2 -69 -27 -116 -28 -45 -31
-60 -35 -140 -8 -202 80 -317 272 -357 31 -6 57 -14 57 -17 0 -2 -9 -16 -20
-30 -11 -14 -20 -31 -20 -38 0 -15 -51 -35 -89 -35 -14 0 -40 9 -58 19 -23 14
-33 17 -37 8 -3 -7 -4 -4 -3 5 5 43 -68 108 -122 108 -30 0 -26 -14 14 -44 19
-15 50 -51 69 -80 41 -63 82 -86 160 -86 l56 0 0 -83 c0 -69 -3 -87 -19 -104
-11 -12 -26 -23 -33 -26 -10 -3 -10 -8 -2 -16 17 -18 78 -3 106 26 21 23 23
33 23 138 0 78 4 118 13 126 10 10 12 -18 12 -142 0 -143 -2 -157 -20 -174
-11 -10 -17 -22 -14 -26 11 -19 57 -8 85 20 l29 29 0 161 c0 101 4 161 10 161
6 0 10 -61 10 -164 l0 -164 31 -26 c33 -28 79 -35 79 -12 0 7 -7 19 -15 26
-12 10 -15 41 -14 169 0 96 4 148 9 136 5 -11 9 -69 9 -128 1 -102 2 -109 26
-131 29 -27 84 -41 99 -26 7 7 2 17 -17 33 -31 26 -35 47 -36 198 -1 95 -4
110 -25 141 l-23 35 76 17 c176 37 241 125 241 322 0 99 -6 123 -47 194 -22
36 -27 59 -28 115 -1 92 -15 119 -58 110 -18 -4 -61 -21 -97 -39 -50 -25 -72
-31 -95 -25 -44 10 -213 10 -265 -1 -41 -8 -51 -6 -110 24 -36 18 -82 36 -102
39 -35 5 -37 4 -49 -30z m668 -349 c49 -37 73 -82 73 -139 0 -94 -37 -149
-120 -182 -36 -13 -78 -17 -215 -17 -153 0 -176 2 -227 22 -60 24 -113 74
-124 118 -13 50 1 133 27 160 56 61 59 62 319 60 225 -1 240 -2 267 -22z
m-592 -484 c3 -5 1 -10 -4 -10 -6 0 -11 5 -11 10 0 6 2 10 4 10 3 0 8 -4 11
-10z"/>
<path d="M590 1001 c0 -5 5 -11 12 -13 6 -2 8 -10 4 -17 -5 -7 -14 -10 -22 -7
-17 7 -19 -35 -4 -65 24 -43 74 -12 74 46 0 18 -6 40 -13 49 -14 17 -51 22
-51 7z"/>
<path d="M959 994 c-29 -36 -8 -114 31 -114 36 0 53 85 22 113 -23 21 -36 21
-53 1z m31 -19 c0 -8 -7 -15 -15 -15 -8 0 -15 7 -15 15 0 8 7 15 15 15 8 0 15
-7 15 -15z"/>
<path d="M786 863 c-11 -11 -6 -23 9 -23 8 0 15 4 15 9 0 13 -16 22 -24 14z"/>
</g>
</svg>
